<svg xmlns="http://www.w3.org/2000/svg" width="82.128" height="82" viewBox="0 0 82.128 82">
  <g id="Group_8669" data-name="Group 8669" transform="translate(-10759.618 -11096.618)">
    <path id="Path_1042" data-name="Path 1042" d="M750.274,767.4a13.556,13.556,0,1,0-13.556-13.556A13.571,13.571,0,0,0,750.274,767.4m0-25.108a11.553,11.553,0,1,1-11.552,11.552,11.566,11.566,0,0,1,11.552-11.552m13.574,34.362-4.173-5.5a1,1,0,0,0-1.427-.175l-7.974,6.428-7.974-6.428a1,1,0,0,0-1.426.175l-4.174,5.5a28.537,28.537,0,0,0-13.994,20.454,7.582,7.582,0,0,0,3.289,7.507c6.492,4.434,15.115,6.876,24.279,6.876s17.787-2.442,24.278-6.876a7.582,7.582,0,0,0,3.29-7.507,28.537,28.537,0,0,0-13.994-20.454m-5.145-3.468,3.2,4.213-5.373,4.81-4.63-3.537Zm-5.329,9.135-1.162,3.575h-3.876l-1.162-3.575,3.1-2.368Zm-4.939,5.578h3.687l2.4,12.491-4.247,4.211-4.247-4.211Zm-6.589-14.713,6.806,5.486-4.629,3.537-5.374-4.81Zm31.577,29.775c-12.764,8.718-33.534,8.718-46.3,0a5.619,5.619,0,0,1-2.437-5.562,26.523,26.523,0,0,1,12.44-18.673l6.176,5.528a1,1,0,0,0,1.276.05l.907-.693,1.089,3.351-2.617,13.574a1,1,0,0,0,.278.9l5.332,5.286a1,1,0,0,0,1.41,0l5.332-5.286a1,1,0,0,0,.278-.9l-2.611-13.592,1.083-3.334.907.693a1,1,0,0,0,1.276-.049l6.177-5.528A26.522,26.522,0,0,1,775.86,797.4a5.617,5.617,0,0,1-2.437,5.562" transform="translate(10037 10367.129)" fill="#5c6a69"/>
    <path id="Path_1043" data-name="Path 1043" d="M799.376,729.489H776.238a5.377,5.377,0,0,0-5.37,5.37v21.469a5.377,5.377,0,0,0,5.37,5.37h1.325v7.259a1,1,0,0,0,1.784.625l6.3-7.884h13.733a5.376,5.376,0,0,0,5.37-5.37V734.859a5.376,5.376,0,0,0-5.37-5.37m3.367,26.839a3.37,3.37,0,0,1-3.367,3.367H785.161a1,1,0,0,0-.782.376l-4.813,6.027v-5.4a1,1,0,0,0-1-1h-2.327a3.37,3.37,0,0,1-3.366-3.367V734.859a3.37,3.37,0,0,1,3.366-3.367h23.138a3.37,3.37,0,0,1,3.367,3.367Z" transform="translate(10037 10367.129)" fill="#5c6a69"/>
    <path id="Path_1044" data-name="Path 1044" d="M798.82,751.561a1,1,0,0,1-1,1H777.8a1,1,0,0,1,0-2h20.021a1,1,0,0,1,1,1" transform="translate(10037 10367.129)" fill="#5c6a69"/>
    <path id="Path_1045" data-name="Path 1045" d="M798.82,756.169a1,1,0,0,1-1,1H777.8a1,1,0,0,1,0-2h20.021a1,1,0,0,1,1,1" transform="translate(10037 10367.129)" fill="#5c6a69"/>
    <path id="Path_1046" data-name="Path 1046" d="M784.419,738.628a3.4,3.4,0,0,1,2.388-3.238v-.372a1,1,0,1,1,2,0v.371a3.391,3.391,0,0,1,1.834,1.383,1,1,0,1,1-1.676,1.1,1.386,1.386,0,1,0-1.16,2.144,3.389,3.389,0,0,1,1,6.627v.372a1,1,0,1,1-2,0v-.371a3.389,3.389,0,0,1-1.835-1.383,1,1,0,0,1,1.676-1.1,1.386,1.386,0,1,0,1.16-2.144,3.392,3.392,0,0,1-3.389-3.389" transform="translate(10037 10367.129)" fill="#2e9f6c"/>
  </g>
</svg>
