<svg xmlns="http://www.w3.org/2000/svg" width="90.102" height="86.18" viewBox="0 0 90.102 86.18">
  <g id="Group_8670" data-name="Group 8670" transform="translate(-11068.102 -11091.14)">
    <path id="Path_1047" data-name="Path 1047" d="M1121.094,798.9a17.524,17.524,0,0,0-11.671-14.708,9.615,9.615,0,1,0-11.61,0,17.494,17.494,0,0,0-5.1,2.808,22.125,22.125,0,0,0-1.914-1.962,21.8,21.8,0,0,0-8.162-4.656,11.774,11.774,0,1,0-12.975,0A21.859,21.859,0,0,0,1059.589,787a17.518,17.518,0,0,0-5.1-2.808,9.614,9.614,0,1,0-11.61,0,17.523,17.523,0,0,0-11.671,14.71,1.469,1.469,0,0,0,1.46,1.625h21.749v2.65a6.924,6.924,0,0,0,6.915,6.916h29.634a6.925,6.925,0,0,0,6.916-6.916v-2.65h21.748a1.469,1.469,0,0,0,1.461-1.626m-17.477-29.041a6.677,6.677,0,1,1-6.677,6.676,6.684,6.684,0,0,1,6.677-6.676m-36.3.705a8.836,8.836,0,1,1,8.841,8.836h-.01a8.846,8.846,0,0,1-8.831-8.836m-18.628-.705a6.677,6.677,0,1,1-6.676,6.676,6.684,6.684,0,0,1,6.676-6.676m5.922,27.729H1034.4a14.641,14.641,0,0,1,23.427-8.235,21.768,21.768,0,0,0-3.214,8.235m40.337,5.588a3.982,3.982,0,0,1-3.978,3.978h-29.634a3.982,3.982,0,0,1-3.978-3.978v-4.039a18.865,18.865,0,0,1,18.79-16.8h.01a18.866,18.866,0,0,1,18.79,16.8Zm2.747-5.588a21.75,21.75,0,0,0-3.214-8.235,14.641,14.641,0,0,1,23.427,8.235Z" transform="translate(10037 10367.129)" fill="#5c6a69"/>
    <path id="Path_1048" data-name="Path 1048" d="M1121.094,798.9a17.524,17.524,0,0,0-11.671-14.708,9.615,9.615,0,1,0-11.61,0,17.494,17.494,0,0,0-5.1,2.808,22.125,22.125,0,0,0-1.914-1.962,21.8,21.8,0,0,0-8.162-4.656,11.774,11.774,0,1,0-12.975,0A21.859,21.859,0,0,0,1059.589,787a17.518,17.518,0,0,0-5.1-2.808,9.614,9.614,0,1,0-11.61,0,17.523,17.523,0,0,0-11.671,14.71,1.469,1.469,0,0,0,1.46,1.625h21.749v2.65a6.924,6.924,0,0,0,6.915,6.916h29.634a6.925,6.925,0,0,0,6.916-6.916v-2.65h21.748a1.469,1.469,0,0,0,1.461-1.626Zm-17.477-29.041a6.677,6.677,0,1,1-6.677,6.676A6.684,6.684,0,0,1,1103.617,769.857Zm-36.3.705a8.836,8.836,0,1,1,8.841,8.836h-.01A8.846,8.846,0,0,1,1067.316,770.562Zm-18.628-.705a6.677,6.677,0,1,1-6.676,6.676A6.684,6.684,0,0,1,1048.688,769.857Zm5.922,27.729H1034.4a14.641,14.641,0,0,1,23.427-8.235A21.768,21.768,0,0,0,1054.61,797.586Zm40.337,5.588a3.982,3.982,0,0,1-3.978,3.978h-29.634a3.982,3.982,0,0,1-3.978-3.978v-4.039a18.865,18.865,0,0,1,18.79-16.8h.01a18.866,18.866,0,0,1,18.79,16.8Zm2.747-5.588a21.75,21.75,0,0,0-3.214-8.235,14.641,14.641,0,0,1,23.427,8.235Z" transform="translate(10037 10367.129)" fill="none" stroke="#061b19" stroke-miterlimit="10" stroke-width="0.2"/>
    <path id="Path_1049" data-name="Path 1049" d="M1066.3,739.23a1.419,1.419,0,0,0,.464,1.558l4.16,3.343-1.4,5.151a1.43,1.43,0,0,0,2.164,1.572l4.466-2.923,4.466,2.924a1.43,1.43,0,0,0,2.163-1.573l-1.4-5.15,4.161-3.344a1.431,1.431,0,0,0-.827-2.544l-5.331-.26-1.9-4.99a1.431,1.431,0,0,0-2.675,0l-1.894,4.99-5.331.26a1.419,1.419,0,0,0-1.291.986m7.1.748a1.431,1.431,0,0,0,1.268-.921l1.484-3.908,1.484,3.908a1.43,1.43,0,0,0,1.267.921l4.176.2-3.258,2.619a1.429,1.429,0,0,0-.485,1.49l1.1,4.034-3.5-2.289a1.431,1.431,0,0,0-1.567,0l-3.5,2.29,1.1-4.034a1.431,1.431,0,0,0-.484-1.49l-3.259-2.619Z" transform="translate(10037 10367.129)" fill="#2e9f6c"/>
    <path id="Path_1050" data-name="Path 1050" d="M1066.3,739.23a1.419,1.419,0,0,0,.464,1.558l4.16,3.343-1.4,5.151a1.43,1.43,0,0,0,2.164,1.572l4.466-2.923,4.466,2.924a1.43,1.43,0,0,0,2.163-1.573l-1.4-5.15,4.161-3.344a1.431,1.431,0,0,0-.827-2.544l-5.331-.26-1.9-4.99a1.431,1.431,0,0,0-2.675,0l-1.894,4.99-5.331.26A1.419,1.419,0,0,0,1066.3,739.23Zm7.1.748a1.431,1.431,0,0,0,1.268-.921l1.484-3.908,1.484,3.908a1.43,1.43,0,0,0,1.267.921l4.176.2-3.258,2.619a1.429,1.429,0,0,0-.485,1.49l1.1,4.034-3.5-2.289a1.431,1.431,0,0,0-1.567,0l-3.5,2.29,1.1-4.034a1.431,1.431,0,0,0-.484-1.49l-3.259-2.619Z" transform="translate(10037 10367.129)" fill="none" stroke="#061b19" stroke-miterlimit="10" stroke-width="0.159"/>
    <path id="Path_1051" data-name="Path 1051" d="M1075.145,728.795v-3.7a1.008,1.008,0,1,1,2.015,0v3.7a1.008,1.008,0,1,1-2.015,0" transform="translate(10037 10367.129)" fill="#2e9f6c"/>
    <path id="Path_1052" data-name="Path 1052" d="M1075.145,728.795v-3.7a1.008,1.008,0,1,1,2.015,0v3.7a1.008,1.008,0,1,1-2.015,0Z" transform="translate(10037 10367.129)" fill="none" stroke="#061b19" stroke-miterlimit="10" stroke-width="0.159"/>
    <path id="Path_1053" data-name="Path 1053" d="M1081.28,734.764a1.007,1.007,0,0,1,.075-1.423l4.12-3.71a1.008,1.008,0,0,1,1.348,1.5l-4.12,3.71a1.009,1.009,0,0,1-1.423-.075" transform="translate(10037 10367.129)" fill="#2e9f6c"/>
    <path id="Path_1054" data-name="Path 1054" d="M1081.28,734.764a1.007,1.007,0,0,1,.075-1.423l4.12-3.71a1.008,1.008,0,0,1,1.348,1.5l-4.12,3.71a1.009,1.009,0,0,1-1.423-.075Z" transform="translate(10037 10367.129)" fill="none" stroke="#061b19" stroke-miterlimit="10" stroke-width="0.159"/>
    <path id="Path_1055" data-name="Path 1055" d="M1065.406,729.706a1.007,1.007,0,0,1,1.423-.075l4.12,3.71a1.008,1.008,0,1,1-1.348,1.5l-4.12-3.71a1.008,1.008,0,0,1-.075-1.423" transform="translate(10037 10367.129)" fill="#2e9f6c"/>
    <path id="Path_1056" data-name="Path 1056" d="M1065.406,729.706a1.007,1.007,0,0,1,1.423-.075l4.12,3.71a1.008,1.008,0,1,1-1.348,1.5l-4.12-3.71A1.008,1.008,0,0,1,1065.406,729.706Z" transform="translate(10037 10367.129)" fill="none" stroke="#061b19" stroke-miterlimit="10" stroke-width="0.159"/>
  </g>
</svg>
