<svg xmlns="http://www.w3.org/2000/svg" width="73.017" height="79.655" viewBox="0 0 73.017 79.655">
  <g id="Group_8668" data-name="Group 8668" transform="translate(-10174.75 -11094.146)">
    <path id="Path_1039" data-name="Path 1039" d="M384.682,800.034h-7.966a2.655,2.655,0,1,1,0-5.31h7.966a2.655,2.655,0,1,1,0,5.31Z" transform="translate(9827.24 10367.129)" fill="none" stroke="#5c6a69" stroke-linecap="round" stroke-linejoin="round" stroke-width="2.655"/>
    <rect id="Rectangle_3775" data-name="Rectangle 3775" width="47.793" height="6.638" transform="translate(10184.042 11148.575)" fill="none" stroke="#5c6a69" stroke-linecap="round" stroke-linejoin="round" stroke-width="2.655"/>
    <rect id="Rectangle_3776" data-name="Rectangle 3776" width="47.793" height="6.638" transform="translate(10184.042 11136.627)" fill="none" stroke="#5c6a69" stroke-linecap="round" stroke-linejoin="round" stroke-width="2.655"/>
    <path id="Path_1040" data-name="Path 1040" d="M373.257,762.861v-2.917a5.049,5.049,0,0,1,5.049-5.049h3.178a5.049,5.049,0,0,1,5.049,5.049v2.917" transform="translate(9827.24 10367.129)" fill="none" stroke="#5c6a69" stroke-linecap="round" stroke-linejoin="round" stroke-width="2.655"/>
    <circle id="Ellipse_7" data-name="Ellipse 7" cx="3.983" cy="3.983" r="3.983" transform="translate(10203.151 11108.748)" fill="none" stroke="#5c6a69" stroke-linecap="round" stroke-linejoin="round" stroke-width="2.655"/>
    <line id="Line_141" data-name="Line 141" x2="21.241" transform="translate(10196.514 11129.989)" fill="none" stroke="#5c6a69" stroke-linecap="round" stroke-linejoin="round" stroke-width="2.655"/>
    <path id="Path_1041" data-name="Path 1041" d="M412.561,746.93v53.1a5.311,5.311,0,0,1-5.31,5.311h-53.1a5.31,5.31,0,0,1-5.31-5.311V740.292a5.31,5.31,0,0,1,5.31-5.31h46.466" transform="translate(9827.24 10367.129)" fill="none" stroke="#5c6a69" stroke-linecap="round" stroke-linejoin="round" stroke-width="2.655"/>
    <line id="Line_142" data-name="Line 142" x2="13.276" transform="translate(10233.163 11102.11)" fill="none" stroke="#2e9f6c" stroke-linecap="round" stroke-linejoin="round" stroke-width="2.655"/>
    <line id="Line_143" data-name="Line 143" y2="13.276" transform="translate(10239.801 11095.473)" fill="none" stroke="#2e9f6c" stroke-linecap="round" stroke-linejoin="round" stroke-width="2.655"/>
  </g>
</svg>
